<mxfile host="Electron" modified="2023-04-24T16:18:02.330Z" agent="Mozilla/5.0 (Windows NT 10.0; Win64; x64) AppleWebKit/537.36 (KHTML, like Gecko) draw.io/21.1.2 Chrome/106.0.5249.199 Electron/21.4.3 Safari/537.36" etag="sPNAngYrjnOl7x3GapCy" version="21.1.2" type="device">
  <diagram id="Sg7ZV_KuBf7xHADTHJAd" name="Page-1">
    <mxGraphModel dx="1050" dy="638" grid="0" gridSize="10" guides="1" tooltips="1" connect="1" arrows="1" fold="1" page="0" pageScale="1" pageWidth="827" pageHeight="1169" background="none" math="0" shadow="0">
      <root>
        <mxCell id="0" />
        <mxCell id="1" parent="0" />
        <mxCell id="JtI680RbjMdnWNYT66Pj-16" style="rounded=0;orthogonalLoop=1;jettySize=auto;html=1;exitX=0.5;exitY=0.5;exitDx=0;exitDy=0;exitPerimeter=0;entryX=0;entryY=0.5;entryDx=0;entryDy=0;endArrow=none;endFill=0;strokeWidth=2;fontSize=13;strokeColor=default;fontColor=default;labelBackgroundColor=none;" parent="1" source="JtI680RbjMdnWNYT66Pj-1" target="JtI680RbjMdnWNYT66Pj-2" edge="1">
          <mxGeometry relative="1" as="geometry" />
        </mxCell>
        <mxCell id="JtI680RbjMdnWNYT66Pj-17" style="rounded=0;orthogonalLoop=1;jettySize=auto;html=1;exitX=0.5;exitY=0.5;exitDx=0;exitDy=0;exitPerimeter=0;entryX=0;entryY=0.5;entryDx=0;entryDy=0;endArrow=none;endFill=0;strokeWidth=2;fontSize=13;strokeColor=default;fontColor=default;labelBackgroundColor=none;" parent="1" source="JtI680RbjMdnWNYT66Pj-1" target="JtI680RbjMdnWNYT66Pj-11" edge="1">
          <mxGeometry relative="1" as="geometry" />
        </mxCell>
        <mxCell id="JtI680RbjMdnWNYT66Pj-1" value="Customer" style="shape=umlActor;verticalLabelPosition=bottom;verticalAlign=top;html=1;strokeWidth=2;fontSize=13;strokeColor=default;fontColor=default;labelBackgroundColor=none;" parent="1" vertex="1">
          <mxGeometry x="70" y="290" width="30" height="60" as="geometry" />
        </mxCell>
        <mxCell id="JtI680RbjMdnWNYT66Pj-2" value="Take Membership" style="ellipse;whiteSpace=wrap;html=1;strokeWidth=2;fontSize=13;strokeColor=default;fontColor=default;labelBackgroundColor=none;" parent="1" vertex="1">
          <mxGeometry x="356" y="222" width="140" height="70" as="geometry" />
        </mxCell>
        <mxCell id="KUqp1MOufIAPbCy5ALb7-6" style="rounded=0;orthogonalLoop=1;jettySize=auto;html=1;exitX=0;exitY=0.5;exitDx=0;exitDy=0;entryX=0.5;entryY=0.5;entryDx=0;entryDy=0;entryPerimeter=0;endArrow=none;endFill=0;strokeWidth=2;" parent="1" source="JtI680RbjMdnWNYT66Pj-3" target="KUqp1MOufIAPbCy5ALb7-2" edge="1">
          <mxGeometry relative="1" as="geometry" />
        </mxCell>
        <mxCell id="JtI680RbjMdnWNYT66Pj-3" value="Rate the ride &lt;br style=&quot;font-size: 13px;&quot;&gt;experience and vehicleâ€™s efficiency" style="ellipse;whiteSpace=wrap;html=1;strokeWidth=2;fontSize=13;strokeColor=default;fontColor=default;labelBackgroundColor=none;" parent="1" vertex="1">
          <mxGeometry x="359" y="718" width="140" height="70" as="geometry" />
        </mxCell>
        <mxCell id="JtI680RbjMdnWNYT66Pj-4" value="Report preparation" style="ellipse;whiteSpace=wrap;html=1;strokeWidth=2;fontSize=13;strokeColor=default;fontColor=default;labelBackgroundColor=none;" parent="1" vertex="1">
          <mxGeometry x="630" y="999" width="141" height="70" as="geometry" />
        </mxCell>
        <mxCell id="KUqp1MOufIAPbCy5ALb7-5" style="rounded=0;orthogonalLoop=1;jettySize=auto;html=1;exitX=0;exitY=0.5;exitDx=0;exitDy=0;entryX=0.5;entryY=0.5;entryDx=0;entryDy=0;entryPerimeter=0;endArrow=none;endFill=0;strokeWidth=2;" parent="1" source="JtI680RbjMdnWNYT66Pj-5" target="KUqp1MOufIAPbCy5ALb7-2" edge="1">
          <mxGeometry relative="1" as="geometry">
            <mxPoint x="143.14289202008933" y="675.857125418527" as="targetPoint" />
          </mxGeometry>
        </mxCell>
        <mxCell id="JtI680RbjMdnWNYT66Pj-5" value="Hire a vehicle" style="ellipse;whiteSpace=wrap;html=1;strokeWidth=2;fontSize=13;strokeColor=default;fontColor=default;labelBackgroundColor=none;" parent="1" vertex="1">
          <mxGeometry x="359" y="601" width="140" height="70" as="geometry" />
        </mxCell>
        <mxCell id="JtI680RbjMdnWNYT66Pj-6" value="Register staff" style="ellipse;whiteSpace=wrap;html=1;strokeWidth=2;fontSize=13;strokeColor=default;fontColor=default;labelBackgroundColor=none;" parent="1" vertex="1">
          <mxGeometry x="630" y="871" width="140" height="70" as="geometry" />
        </mxCell>
        <mxCell id="KUqp1MOufIAPbCy5ALb7-4" style="rounded=0;orthogonalLoop=1;jettySize=auto;html=1;exitX=0;exitY=0.5;exitDx=0;exitDy=0;entryX=0.5;entryY=0.5;entryDx=0;entryDy=0;entryPerimeter=0;endArrow=none;endFill=0;strokeWidth=2;" parent="1" source="JtI680RbjMdnWNYT66Pj-7" target="KUqp1MOufIAPbCy5ALb7-2" edge="1">
          <mxGeometry relative="1" as="geometry" />
        </mxCell>
        <mxCell id="JtI680RbjMdnWNYT66Pj-7" value="Book cab" style="ellipse;whiteSpace=wrap;html=1;strokeWidth=2;fontSize=13;strokeColor=default;fontColor=default;labelBackgroundColor=none;" parent="1" vertex="1">
          <mxGeometry x="356" y="470" width="140" height="70" as="geometry" />
        </mxCell>
        <mxCell id="KUqp1MOufIAPbCy5ALb7-7" style="rounded=0;orthogonalLoop=1;jettySize=auto;html=1;exitX=0;exitY=0.5;exitDx=0;exitDy=0;entryX=0.5;entryY=0.5;entryDx=0;entryDy=0;entryPerimeter=0;endArrow=none;endFill=0;strokeWidth=2;" parent="1" source="JtI680RbjMdnWNYT66Pj-8" target="KUqp1MOufIAPbCy5ALb7-2" edge="1">
          <mxGeometry relative="1" as="geometry">
            <mxPoint x="160.28574916294644" y="850.714303152902" as="targetPoint" />
          </mxGeometry>
        </mxCell>
        <mxCell id="JtI680RbjMdnWNYT66Pj-8" value="Track the status &lt;br style=&quot;font-size: 13px;&quot;&gt;of drivers" style="ellipse;whiteSpace=wrap;html=1;strokeWidth=2;fontSize=13;strokeColor=default;fontColor=default;labelBackgroundColor=none;" parent="1" vertex="1">
          <mxGeometry x="356" y="825" width="140" height="70" as="geometry" />
        </mxCell>
        <mxCell id="JtI680RbjMdnWNYT66Pj-11" value="Join the training courses" style="ellipse;whiteSpace=wrap;html=1;strokeWidth=2;fontSize=13;strokeColor=default;fontColor=default;labelBackgroundColor=none;" parent="1" vertex="1">
          <mxGeometry x="359" y="346" width="140" height="70" as="geometry" />
        </mxCell>
        <mxCell id="JtI680RbjMdnWNYT66Pj-12" value="Register vehicle" style="ellipse;whiteSpace=wrap;html=1;strokeWidth=2;fontSize=13;strokeColor=default;fontColor=default;labelBackgroundColor=none;" parent="1" vertex="1">
          <mxGeometry x="634" y="753" width="140" height="70" as="geometry" />
        </mxCell>
        <mxCell id="JtI680RbjMdnWNYT66Pj-13" value="Hire a driver" style="ellipse;whiteSpace=wrap;html=1;strokeWidth=2;fontSize=13;strokeColor=default;fontColor=default;labelBackgroundColor=none;" parent="1" vertex="1">
          <mxGeometry x="634" y="540" width="140" height="70" as="geometry" />
        </mxCell>
        <mxCell id="JtI680RbjMdnWNYT66Pj-15" value="Confirm hire" style="ellipse;whiteSpace=wrap;html=1;strokeWidth=2;fontSize=13;strokeColor=default;fontColor=default;labelBackgroundColor=none;" parent="1" vertex="1">
          <mxGeometry x="634" y="645" width="140" height="70" as="geometry" />
        </mxCell>
        <mxCell id="JtI680RbjMdnWNYT66Pj-23" value="&amp;lt;&amp;lt;include&amp;gt;&amp;gt;" style="html=1;verticalAlign=bottom;labelBackgroundColor=none;endArrow=open;endFill=0;dashed=1;rounded=0;exitX=1;exitY=0.5;exitDx=0;exitDy=0;strokeWidth=2;fontSize=13;strokeColor=default;fontColor=default;" parent="1" source="JtI680RbjMdnWNYT66Pj-11" target="JtI680RbjMdnWNYT66Pj-14" edge="1">
          <mxGeometry x="-0.1397" y="9" width="160" relative="1" as="geometry">
            <mxPoint x="544" y="618" as="sourcePoint" />
            <mxPoint x="704" y="618" as="targetPoint" />
            <mxPoint as="offset" />
          </mxGeometry>
        </mxCell>
        <mxCell id="JtI680RbjMdnWNYT66Pj-25" value="&amp;lt;&amp;lt;include&amp;gt;&amp;gt;" style="html=1;verticalAlign=bottom;labelBackgroundColor=none;endArrow=open;endFill=0;dashed=1;rounded=0;entryX=0.063;entryY=0.763;entryDx=0;entryDy=0;exitX=1;exitY=0;exitDx=0;exitDy=0;entryPerimeter=0;strokeWidth=2;fontSize=13;strokeColor=default;fontColor=default;" parent="1" source="JtI680RbjMdnWNYT66Pj-5" target="JtI680RbjMdnWNYT66Pj-14" edge="1">
          <mxGeometry x="-0.459" y="25" width="160" relative="1" as="geometry">
            <mxPoint x="556" y="515" as="sourcePoint" />
            <mxPoint x="711" y="640" as="targetPoint" />
            <mxPoint y="1" as="offset" />
          </mxGeometry>
        </mxCell>
        <mxCell id="JtI680RbjMdnWNYT66Pj-30" style="rounded=0;orthogonalLoop=1;jettySize=auto;html=1;exitX=0.5;exitY=0.5;exitDx=0;exitDy=0;exitPerimeter=0;entryX=1;entryY=0.5;entryDx=0;entryDy=0;endArrow=none;endFill=0;strokeWidth=2;fontSize=13;strokeColor=default;fontColor=default;labelBackgroundColor=none;" parent="1" source="JtI680RbjMdnWNYT66Pj-27" target="JtI680RbjMdnWNYT66Pj-15" edge="1">
          <mxGeometry relative="1" as="geometry" />
        </mxCell>
        <mxCell id="JtI680RbjMdnWNYT66Pj-31" style="rounded=0;orthogonalLoop=1;jettySize=auto;html=1;exitX=0.5;exitY=0.5;exitDx=0;exitDy=0;exitPerimeter=0;entryX=1;entryY=0.5;entryDx=0;entryDy=0;endArrow=none;endFill=0;strokeWidth=2;fontSize=13;strokeColor=default;fontColor=default;labelBackgroundColor=none;" parent="1" source="JtI680RbjMdnWNYT66Pj-27" target="JtI680RbjMdnWNYT66Pj-12" edge="1">
          <mxGeometry relative="1" as="geometry" />
        </mxCell>
        <mxCell id="JtI680RbjMdnWNYT66Pj-27" value="Driver" style="shape=umlActor;verticalLabelPosition=bottom;verticalAlign=top;html=1;strokeWidth=2;fontSize=13;strokeColor=default;fontColor=default;labelBackgroundColor=none;" parent="1" vertex="1">
          <mxGeometry x="1020" y="687" width="30" height="60" as="geometry" />
        </mxCell>
        <mxCell id="JtI680RbjMdnWNYT66Pj-32" style="rounded=0;orthogonalLoop=1;jettySize=auto;html=1;exitX=0.5;exitY=0.5;exitDx=0;exitDy=0;exitPerimeter=0;entryX=1;entryY=0.5;entryDx=0;entryDy=0;endArrow=none;endFill=0;strokeWidth=2;fontSize=13;strokeColor=default;fontColor=default;labelBackgroundColor=none;" parent="1" source="JtI680RbjMdnWNYT66Pj-28" target="JtI680RbjMdnWNYT66Pj-6" edge="1">
          <mxGeometry relative="1" as="geometry" />
        </mxCell>
        <mxCell id="JtI680RbjMdnWNYT66Pj-33" style="rounded=0;orthogonalLoop=1;jettySize=auto;html=1;exitX=0.5;exitY=0.5;exitDx=0;exitDy=0;exitPerimeter=0;entryX=1;entryY=0.5;entryDx=0;entryDy=0;endArrow=none;endFill=0;strokeWidth=2;fontSize=13;strokeColor=default;fontColor=default;labelBackgroundColor=none;" parent="1" source="JtI680RbjMdnWNYT66Pj-28" target="JtI680RbjMdnWNYT66Pj-4" edge="1">
          <mxGeometry relative="1" as="geometry" />
        </mxCell>
        <mxCell id="JtI680RbjMdnWNYT66Pj-28" value="Admin" style="shape=umlActor;verticalLabelPosition=bottom;verticalAlign=top;html=1;strokeWidth=2;fontSize=13;strokeColor=default;fontColor=default;labelBackgroundColor=none;" parent="1" vertex="1">
          <mxGeometry x="1016" y="930" width="30" height="60" as="geometry" />
        </mxCell>
        <mxCell id="W9QEtiOxt6KoalJ0igwo-1" value="Allgemein" style="shape=umlFrame;whiteSpace=wrap;html=1;pointerEvents=0;recursiveResize=0;container=1;collapsible=0;width=160;strokeColor=default;fontColor=default;labelBackgroundColor=none;" parent="1" vertex="1">
          <mxGeometry x="237" y="181" width="621" height="943" as="geometry" />
        </mxCell>
        <mxCell id="98QJETeo1Kw4cZLWInk4-1" value="&amp;nbsp;Announcement" style="ellipse;whiteSpace=wrap;html=1;strokeWidth=2;fontSize=13;strokeColor=default;fontColor=default;labelBackgroundColor=none;" vertex="1" parent="W9QEtiOxt6KoalJ0igwo-1">
          <mxGeometry x="269" y="751" width="140" height="70" as="geometry" />
        </mxCell>
        <mxCell id="JtI680RbjMdnWNYT66Pj-14" value="Payment" style="ellipse;whiteSpace=wrap;html=1;strokeWidth=2;fontSize=13;strokeColor=default;fontColor=default;labelBackgroundColor=none;" parent="W9QEtiOxt6KoalJ0igwo-1" vertex="1">
          <mxGeometry x="450" y="246" width="140" height="70" as="geometry" />
        </mxCell>
        <mxCell id="KUqp1MOufIAPbCy5ALb7-1" value="&amp;lt;&amp;lt;extend&amp;gt;&amp;gt;" style="html=1;verticalAlign=bottom;labelBackgroundColor=none;endArrow=open;endFill=0;dashed=1;rounded=0;entryX=1;entryY=0.5;entryDx=0;entryDy=0;exitX=0;exitY=0.5;exitDx=0;exitDy=0;strokeWidth=2;fontSize=13;strokeColor=default;fontColor=default;" parent="1" source="JtI680RbjMdnWNYT66Pj-13" target="JtI680RbjMdnWNYT66Pj-5" edge="1">
          <mxGeometry x="0.0158" y="33" width="160" relative="1" as="geometry">
            <mxPoint x="664" y="416" as="sourcePoint" />
            <mxPoint x="506" y="267" as="targetPoint" />
            <mxPoint as="offset" />
          </mxGeometry>
        </mxCell>
        <mxCell id="98QJETeo1Kw4cZLWInk4-3" style="rounded=0;orthogonalLoop=1;jettySize=auto;html=1;exitX=0.5;exitY=0.5;exitDx=0;exitDy=0;exitPerimeter=0;entryX=0;entryY=0.5;entryDx=0;entryDy=0;strokeWidth=2;endArrow=none;endFill=0;" edge="1" parent="1" source="KUqp1MOufIAPbCy5ALb7-2" target="JtI680RbjMdnWNYT66Pj-11">
          <mxGeometry relative="1" as="geometry" />
        </mxCell>
        <mxCell id="KUqp1MOufIAPbCy5ALb7-2" value="Member" style="shape=umlActor;verticalLabelPosition=bottom;verticalAlign=top;html=1;strokeWidth=2;fontSize=13;strokeColor=default;fontColor=default;labelBackgroundColor=none;" parent="1" vertex="1">
          <mxGeometry x="55" y="627" width="30" height="60" as="geometry" />
        </mxCell>
        <mxCell id="98QJETeo1Kw4cZLWInk4-2" style="rounded=0;orthogonalLoop=1;jettySize=auto;html=1;exitX=1;exitY=0.5;exitDx=0;exitDy=0;entryX=0.5;entryY=0.5;entryDx=0;entryDy=0;entryPerimeter=0;endArrow=none;endFill=0;strokeWidth=2;" edge="1" parent="1" source="98QJETeo1Kw4cZLWInk4-1" target="JtI680RbjMdnWNYT66Pj-28">
          <mxGeometry relative="1" as="geometry" />
        </mxCell>
      </root>
    </mxGraphModel>
  </diagram>
</mxfile>
